Coordinates
version=1
nRows=9
nColumns=24
inDegrees=yes

Units are S.I. units (second, meters, Newtons, ...)
Angles are in degrees.

endheader
time	pelvis_tilt	pelvis_list	pelvis_rotation	pelvis_tx	pelvis_ty	pelvis_tz	hip_flexion_r	hip_adduction_r	hip_rotation_r	knee_angle_r	ankle_angle_r	subtalar_angle_r	mtp_angle_r	hip_flexion_l	hip_adduction_l	hip_rotation_l	knee_angle_l	ankle_angle_l	subtalar_angle_l	mtp_angle_l	lumbar_extension	lumbar_bending	lumbar_rotation
      0.72383333	     -0.03377359	     -2.51827638	      2.07773437	     -0.45795703	      0.98585400	      0.30081736	     14.21397026	      7.45780199	     -0.09948100	    -21.51480598	      8.06491556	     -9.39512487	      0.90162611	     19.40227501	     -2.60258726	     -0.90578616	    -71.52997447	     -5.60810937	     -5.60480371	      1.75854950	     -0.95575546	      5.49163988	      2.05234477
      0.72800000	      0.01449192	     -2.44680646	      2.11203884	     -0.45279743	      0.98682980	      0.30066242	     13.64405354	      7.34877895	     -0.25249942	    -21.17852341	      8.24790445	     -8.95113511	      0.68875584	     20.00517795	     -2.45801591	     -0.79773791	    -71.42168527	     -4.97112664	     -6.16070036	      0.65292642	     -1.02640351	      5.42720941	      2.12875422
      0.73216667	      0.05373739	     -2.40306424	      2.11848974	     -0.44765555	      0.98780297	      0.30063091	     13.04765204	      7.31084899	     -0.22552237	    -20.76255833	      8.29421070	     -8.95584430	      0.67819327	     20.59697866	     -2.36825640	     -0.72316990	    -71.23664268	     -4.36205005	     -6.74321032	      0.60109506	     -1.09630764	      5.38297755	      2.16064650
      0.73633333	      0.12098389	     -2.34839334	      2.12684235	     -0.44250598	      0.98881472	      0.30055817	     12.41402063	      7.25298936	     -0.22819665	    -20.33184744	      8.35934328	     -8.88181981	      0.66632861	     21.13285362	     -2.25810623	     -0.64721771	    -70.96949183	     -3.79612799	     -7.31773121	      0.53216131	     -1.20004245	      5.32978919	      2.21817966
      0.74050000	      0.20656324	     -2.26081466	      2.13141469	     -0.43732722	      0.98985643	      0.30045825	     11.75429632	      7.15281791	     -0.24850958	    -19.89414795	      8.43234573	     -8.70975067	      0.64769645	     21.61120533	     -2.10811499	     -0.58291853	    -70.60266820	     -3.27335617	     -7.86452422	      0.40974029	     -1.31731813	      5.25688196	      2.30822990
      0.74466667	      0.26782443	     -2.19310748	      2.12327509	     -0.43216838	      0.99081225	      0.30038174	     11.13272092	      7.07538466	     -0.26970687	    -19.47526522	      8.50893856	     -8.53228402	      0.62853203	     22.10208930	     -1.98743684	     -0.53053382	    -70.18741554	     -2.70018983	     -8.35213586	      0.27713089	     -1.41023181	      5.19932032	      2.39337597
      0.74883333	      0.32727212	     -2.09401610	      2.10095119	     -0.42700885	      0.99176660	      0.30030506	     10.51546910	      6.96227315	     -0.28533403	    -19.06501403	      8.58913882	     -8.34678457	      0.61050471	     22.55933310	     -1.83519933	     -0.50116017	    -69.68071018	     -2.14806483	     -8.81114122	      0.14038942	     -1.50434573	      5.10438681	      2.48627301
      0.75300000	      0.36070840	     -1.99684448	      2.06583904	     -0.42186284	      0.99263659	      0.30024255	      9.93423203	      6.85059323	     -0.30106413	    -18.66628386	      8.66717718	     -8.14360868	      0.59239528	     23.02485554	     -1.68833221	     -0.48327619	    -69.11398031	     -1.60313052	     -9.23442901	     -0.01195885	     -1.56880865	      5.00837063	      2.59221968
      0.75716667	      0.35612543	     -1.92664482	      2.01803165	     -0.41676402	      0.99338473	      0.30020982	      9.40500936	      6.77460838	     -0.27556553	    -18.28161275	      8.75041688	     -8.02827402	      0.58628402	     23.52304853	     -1.57890964	     -0.47071236	    -68.50968952	     -1.01340924	     -9.57837958	     -0.07194252	     -1.60248766	      4.94234404	      2.65245341
